<svg width="88" height="88" viewBox="0 0 88 88" fill="none" xmlns="http://www.w3.org/2000/svg">
<path d="M26.675 13.475C31.9 10.45 37.675 8.79999 44 8.79999C53.625 8.79999 62.425 12.65 68.75 18.975" stroke="#31A62B" stroke-width="3" stroke-miterlimit="10" stroke-linecap="round" stroke-linejoin="round"/>
<path d="M13.475 61.325C10.45 56.1 8.79999 50.325 8.79999 44C8.79999 36.025 11.55 28.6 15.95 22.825" stroke="#31A62B" stroke-width="3" stroke-miterlimit="10" stroke-linecap="round" stroke-linejoin="round"/>
<path d="M68.75 68.75C62.425 75.075 53.625 78.925 44 78.925C36.025 78.925 28.6 76.175 22.825 71.775" stroke="#31A62B" stroke-width="3" stroke-miterlimit="10" stroke-linecap="round" stroke-linejoin="round"/>
<path d="M44 68.2C57.3653 68.2 68.2 57.3653 68.2 44C68.2 30.6347 57.3653 19.8 44 19.8C30.6347 19.8 19.8 30.6347 19.8 44C19.8 57.3653 30.6347 68.2 44 68.2Z" stroke="#31A62B" stroke-width="3" stroke-miterlimit="10" stroke-linecap="round" stroke-linejoin="round"/>
<path d="M44 19.8V68.2" stroke="#31A62B" stroke-width="3" stroke-miterlimit="10" stroke-linecap="round" stroke-linejoin="round"/>
<path d="M39.6 67.65C38.225 66.275 29.425 57.75 29.425 44C29.425 30.25 38.225 21.725 39.6 20.35" stroke="#31A62B" stroke-width="3" stroke-miterlimit="10" stroke-linecap="round" stroke-linejoin="round"/>
<path d="M48.4 67.65C49.775 66.275 58.575 57.75 58.575 44C58.575 30.25 49.775 21.725 48.4 20.35" stroke="#31A62B" stroke-width="3" stroke-miterlimit="10" stroke-linecap="round" stroke-linejoin="round"/>
<path d="M23.925 30.525C26.95 32.45 34.1 36.025 44 36.025C53.9 36.025 61.05 32.175 64.075 30.525" stroke="#31A62B" stroke-width="3" stroke-miterlimit="10" stroke-linecap="round" stroke-linejoin="round"/>
<path d="M64.075 55C61.05 53.075 53.9 49.5 44 49.5C34.1 49.5 26.95 53.35 23.925 55" stroke="#31A62B" stroke-width="3" stroke-miterlimit="10" stroke-linecap="round" stroke-linejoin="round"/>
<path d="M68.2 44H81.675" stroke="#31A62B" stroke-width="3" stroke-miterlimit="10" stroke-linecap="round" stroke-linejoin="round"/>
<path d="M81.675 46.475C83.0419 46.475 84.15 45.3669 84.15 44C84.15 42.6331 83.0419 41.525 81.675 41.525C80.3081 41.525 79.2 42.6331 79.2 44C79.2 45.3669 80.3081 46.475 81.675 46.475Z" stroke="#31A62B" stroke-width="3" stroke-miterlimit="10" stroke-linecap="round" stroke-linejoin="round"/>
<path d="M79.2 58.85C80.5669 58.85 81.675 57.7419 81.675 56.375C81.675 55.0081 80.5669 53.9 79.2 53.9C77.8331 53.9 76.725 55.0081 76.725 56.375C76.725 57.7419 77.8331 58.85 79.2 58.85Z" stroke="#31A62B" stroke-width="3" stroke-miterlimit="10" stroke-linecap="round" stroke-linejoin="round"/>
<path d="M67.1 53.35L70.125 56.375H79.2" stroke="#31A62B" stroke-width="3" stroke-miterlimit="10" stroke-linecap="round" stroke-linejoin="round"/>
<path d="M79.2 34.1C80.5669 34.1 81.675 32.9919 81.675 31.625C81.675 30.2581 80.5669 29.15 79.2 29.15C77.8331 29.15 76.725 30.2581 76.725 31.625C76.725 32.9919 77.8331 34.1 79.2 34.1Z" stroke="#31A62B" stroke-width="3" stroke-miterlimit="10" stroke-linecap="round" stroke-linejoin="round"/>
<path d="M67.1 34.65L70.125 31.625H79.2" stroke="#31A62B" stroke-width="3" stroke-miterlimit="10" stroke-linecap="round" stroke-linejoin="round"/>
<path d="M19.25 23.925C21.8319 23.925 23.925 21.8319 23.925 19.25C23.925 16.6681 21.8319 14.575 19.25 14.575C16.6681 14.575 14.575 16.6681 14.575 19.25C14.575 21.8319 16.6681 23.925 19.25 23.925Z" stroke="#31A62B" stroke-width="3" stroke-miterlimit="10" stroke-linecap="round" stroke-linejoin="round"/>
<path d="M19.25 73.425C21.8319 73.425 23.925 71.3319 23.925 68.75C23.925 66.168 21.8319 64.075 19.25 64.075C16.6681 64.075 14.575 66.168 14.575 68.75C14.575 71.3319 16.6681 73.425 19.25 73.425Z" stroke="#31A62B" stroke-width="3" stroke-miterlimit="10" stroke-linecap="round" stroke-linejoin="round"/>
</svg>
