<svg width="88" height="88" viewBox="0 0 88 88" fill="none" xmlns="http://www.w3.org/2000/svg">
<path d="M66.5501 26.125V33.55C66.5501 49.225 57.4751 62.975 44.0001 67.925C30.5251 62.975 21.4501 49.225 21.4501 33.55V26.125C26.6751 24.475 34.3751 22.55 44.0001 22.55C49.5001 22.275 57.4751 23.1 66.5501 26.125Z" stroke="#31A62B" stroke-width="3" stroke-miterlimit="10" stroke-linecap="round" stroke-linejoin="round"/>
<path d="M57.475 33V33.55C57.475 44.275 52.25 53.625 44 58.025C35.75 53.625 30.525 44.275 30.525 33.55V33C34.925 31.9 39.6 31.625 44 31.625C48.4 31.625 53.075 31.9 57.475 33Z" stroke="#31A62B" stroke-width="3" stroke-miterlimit="10" stroke-linecap="round" stroke-linejoin="round"/>
<path d="M65.175 44H81.125" stroke="#31A62B" stroke-width="3" stroke-miterlimit="10" stroke-linecap="round" stroke-linejoin="round"/>
<path d="M81.125 46.475C82.4919 46.475 83.6 45.3669 83.6 44C83.6 42.6331 82.4919 41.525 81.125 41.525C79.7581 41.525 78.65 42.6331 78.65 44C78.65 45.3669 79.7581 46.475 81.125 46.475Z" stroke="#31A62B" stroke-width="3" stroke-miterlimit="10" stroke-linecap="round" stroke-linejoin="round"/>
<path d="M78.375 58.85C79.7419 58.85 80.85 57.7419 80.85 56.375C80.85 55.0081 79.7419 53.9 78.375 53.9C77.0081 53.9 75.9 55.0081 75.9 56.375C75.9 57.7419 77.0081 58.85 78.375 58.85Z" stroke="#31A62B" stroke-width="3" stroke-miterlimit="10" stroke-linecap="round" stroke-linejoin="round"/>
<path d="M62.975 49.775L69.575 56.375H78.375" stroke="#31A62B" stroke-width="3" stroke-miterlimit="10" stroke-linecap="round" stroke-linejoin="round"/>
<path d="M78.375 34.1C79.7419 34.1 80.85 32.9919 80.85 31.625C80.85 30.2581 79.7419 29.15 78.375 29.15C77.0081 29.15 75.9 30.2581 75.9 31.625C75.9 32.9919 77.0081 34.1 78.375 34.1Z" stroke="#31A62B" stroke-width="3" stroke-miterlimit="10" stroke-linecap="round" stroke-linejoin="round"/>
<path d="M66.55 34.65L69.575 31.625H78.375" stroke="#31A62B" stroke-width="3" stroke-miterlimit="10" stroke-linecap="round" stroke-linejoin="round"/>
<path d="M22.825 44H6.875" stroke="#31A62B" stroke-width="3" stroke-miterlimit="10" stroke-linecap="round" stroke-linejoin="round"/>
<path d="M6.87502 46.475C8.24193 46.475 9.35002 45.3669 9.35002 44C9.35002 42.6331 8.24193 41.525 6.87502 41.525C5.50812 41.525 4.40002 42.6331 4.40002 44C4.40002 45.3669 5.50812 46.475 6.87502 46.475Z" stroke="#31A62B" stroke-width="3" stroke-miterlimit="10" stroke-linecap="round" stroke-linejoin="round"/>
<path d="M9.62502 58.85C10.9919 58.85 12.1 57.7419 12.1 56.375C12.1 55.0081 10.9919 53.9 9.62502 53.9C8.25812 53.9 7.15002 55.0081 7.15002 56.375C7.15002 57.7419 8.25812 58.85 9.62502 58.85Z" stroke="#31A62B" stroke-width="3" stroke-miterlimit="10" stroke-linecap="round" stroke-linejoin="round"/>
<path d="M25.025 49.775L18.425 56.375H9.625" stroke="#31A62B" stroke-width="3" stroke-miterlimit="10" stroke-linecap="round" stroke-linejoin="round"/>
<path d="M9.62502 34.1C10.9919 34.1 12.1 32.9919 12.1 31.625C12.1 30.2581 10.9919 29.15 9.62502 29.15C8.25812 29.15 7.15002 30.2581 7.15002 31.625C7.15002 32.9919 8.25812 34.1 9.62502 34.1Z" stroke="#31A62B" stroke-width="3" stroke-miterlimit="10" stroke-linecap="round" stroke-linejoin="round"/>
<path d="M21.45 34.65L18.425 31.625H9.625" stroke="#31A62B" stroke-width="3" stroke-miterlimit="10" stroke-linecap="round" stroke-linejoin="round"/>
<path d="M17.6 21.175C23.1 14.85 30.525 10.725 39.325 9.625" stroke="#31A62B" stroke-width="3" stroke-miterlimit="10" stroke-linecap="round" stroke-linejoin="round"/>
<path d="M31.9 76.725C26.4 74.8 21.45 71.225 17.6 66.825" stroke="#31A62B" stroke-width="3" stroke-miterlimit="10" stroke-linecap="round" stroke-linejoin="round"/>
<path d="M70.3999 66.825C64.8999 73.15 57.4749 77.275 48.6749 78.65" stroke="#31A62B" stroke-width="3" stroke-miterlimit="10" stroke-linecap="round" stroke-linejoin="round"/>
<path d="M55.825 11.275C61.6 13.2 66.55 16.775 70.4 21.175" stroke="#31A62B" stroke-width="3" stroke-miterlimit="10" stroke-linecap="round" stroke-linejoin="round"/>
<path d="M44.0001 13.75C46.582 13.75 48.6751 11.657 48.6751 9.07502C48.6751 6.49309 46.582 4.40002 44.0001 4.40002C41.4181 4.40002 39.3251 6.49309 39.3251 9.07502C39.3251 11.657 41.4181 13.75 44.0001 13.75Z" stroke="#31A62B" stroke-width="3" stroke-miterlimit="10" stroke-linecap="round" stroke-linejoin="round"/>
<path d="M44.0001 83.6C46.582 83.6 48.6751 81.5069 48.6751 78.925C48.6751 76.3431 46.582 74.25 44.0001 74.25C41.4181 74.25 39.3251 76.3431 39.3251 78.925C39.3251 81.5069 41.4181 83.6 44.0001 83.6Z" stroke="#31A62B" stroke-width="3" stroke-miterlimit="10" stroke-linecap="round" stroke-linejoin="round"/>
</svg>
