<svg width="88" height="88" viewBox="0 0 88 88" fill="none" xmlns="http://www.w3.org/2000/svg">
<path d="M44 55.275C50.227 55.275 55.275 50.227 55.275 44C55.275 37.773 50.227 32.725 44 32.725C37.773 32.725 32.725 37.773 32.725 44C32.725 50.227 37.773 55.275 44 55.275Z" stroke="#31A62B" stroke-width="3" stroke-miterlimit="10" stroke-linecap="round" stroke-linejoin="round"/>
<path d="M11.275 31.9C15.675 20.075 26.4 11 39.325 9.35004" stroke="#31A62B" stroke-width="3" stroke-miterlimit="10" stroke-linecap="round" stroke-linejoin="round"/>
<path d="M31.9 76.725C20.075 72.325 11 61.6 9.35001 48.675" stroke="#31A62B" stroke-width="3" stroke-miterlimit="10" stroke-linecap="round" stroke-linejoin="round"/>
<path d="M76.725 55.825C72.325 67.925 61.6 76.725 48.675 78.65" stroke="#31A62B" stroke-width="3" stroke-miterlimit="10" stroke-linecap="round" stroke-linejoin="round"/>
<path d="M55.825 11.275C67.925 15.675 76.725 26.4 78.65 39.325" stroke="#31A62B" stroke-width="3" stroke-miterlimit="10" stroke-linecap="round" stroke-linejoin="round"/>
<path d="M44 13.75C46.5819 13.75 48.675 11.657 48.675 9.07502C48.675 6.49309 46.5819 4.40002 44 4.40002C41.4181 4.40002 39.325 6.49309 39.325 9.07502C39.325 11.657 41.4181 13.75 44 13.75Z" stroke="#31A62B" stroke-width="3" stroke-miterlimit="10" stroke-linecap="round" stroke-linejoin="round"/>
<path d="M78.925 48.675C81.5069 48.675 83.6 46.5819 83.6 44C83.6 41.4181 81.5069 39.325 78.925 39.325C76.3431 39.325 74.25 41.4181 74.25 44C74.25 46.5819 76.3431 48.675 78.925 48.675Z" stroke="#31A62B" stroke-width="3" stroke-miterlimit="10" stroke-linecap="round" stroke-linejoin="round"/>
<path d="M44 83.6C46.5819 83.6 48.675 81.5069 48.675 78.925C48.675 76.3431 46.5819 74.25 44 74.25C41.4181 74.25 39.325 76.3431 39.325 78.925C39.325 81.5069 41.4181 83.6 44 83.6Z" stroke="#31A62B" stroke-width="3" stroke-miterlimit="10" stroke-linecap="round" stroke-linejoin="round"/>
<path d="M9.07499 48.675C11.6569 48.675 13.75 46.5819 13.75 44C13.75 41.4181 11.6569 39.325 9.07499 39.325C6.49306 39.325 4.39999 41.4181 4.39999 44C4.39999 46.5819 6.49306 48.675 9.07499 48.675Z" stroke="#31A62B" stroke-width="3" stroke-miterlimit="10" stroke-linecap="round" stroke-linejoin="round"/>
<path d="M32.725 44H23.375" stroke="#31A62B" stroke-width="3" stroke-miterlimit="10" stroke-linecap="round" stroke-linejoin="round"/>
<path d="M23.375 46.475C24.7419 46.475 25.85 45.3669 25.85 44C25.85 42.6331 24.7419 41.525 23.375 41.525C22.0081 41.525 20.9 42.6331 20.9 44C20.9 45.3669 22.0081 46.475 23.375 46.475Z" stroke="#31A62B" stroke-width="3" stroke-miterlimit="10" stroke-linecap="round" stroke-linejoin="round"/>
<path d="M25.85 34.1C27.2169 34.1 28.325 32.9919 28.325 31.625C28.325 30.2581 27.2169 29.15 25.85 29.15C24.4831 29.15 23.375 30.2581 23.375 31.625C23.375 32.9919 24.4831 34.1 25.85 34.1Z" stroke="#31A62B" stroke-width="3" stroke-miterlimit="10" stroke-linecap="round" stroke-linejoin="round"/>
<path d="M37.95 34.65L34.925 31.625H25.85" stroke="#31A62B" stroke-width="3" stroke-miterlimit="10" stroke-linecap="round" stroke-linejoin="round"/>
<path d="M25.85 58.85C27.2169 58.85 28.325 57.7419 28.325 56.375C28.325 55.0081 27.2169 53.9 25.85 53.9C24.4831 53.9 23.375 55.0081 23.375 56.375C23.375 57.7419 24.4831 58.85 25.85 58.85Z" stroke="#31A62B" stroke-width="3" stroke-miterlimit="10" stroke-linecap="round" stroke-linejoin="round"/>
<path d="M37.95 53.35L34.925 56.375H25.85" stroke="#31A62B" stroke-width="3" stroke-miterlimit="10" stroke-linecap="round" stroke-linejoin="round"/>
<path d="M55.275 44H64.625" stroke="#31A62B" stroke-width="3" stroke-miterlimit="10" stroke-linecap="round" stroke-linejoin="round"/>
<path d="M64.625 46.475C65.9919 46.475 67.1 45.3669 67.1 44C67.1 42.6331 65.9919 41.525 64.625 41.525C63.2581 41.525 62.15 42.6331 62.15 44C62.15 45.3669 63.2581 46.475 64.625 46.475Z" stroke="#31A62B" stroke-width="3" stroke-miterlimit="10" stroke-linecap="round" stroke-linejoin="round"/>
<path d="M44 32.725V23.375" stroke="#31A62B" stroke-width="3" stroke-miterlimit="10" stroke-linecap="round" stroke-linejoin="round"/>
<path d="M44 25.85C45.3669 25.85 46.475 24.7419 46.475 23.375C46.475 22.0081 45.3669 20.9 44 20.9C42.6331 20.9 41.525 22.0081 41.525 23.375C41.525 24.7419 42.6331 25.85 44 25.85Z" stroke="#31A62B" stroke-width="3" stroke-miterlimit="10" stroke-linecap="round" stroke-linejoin="round"/>
<path d="M44 55.275V64.625" stroke="#31A62B" stroke-width="3" stroke-miterlimit="10" stroke-linecap="round" stroke-linejoin="round"/>
<path d="M44 67.1C45.3669 67.1 46.475 65.9919 46.475 64.625C46.475 63.2581 45.3669 62.15 44 62.15C42.6331 62.15 41.525 63.2581 41.525 64.625C41.525 65.9919 42.6331 67.1 44 67.1Z" stroke="#31A62B" stroke-width="3" stroke-miterlimit="10" stroke-linecap="round" stroke-linejoin="round"/>
<path d="M62.15 58.85C63.5169 58.85 64.625 57.7419 64.625 56.375C64.625 55.0081 63.5169 53.9 62.15 53.9C60.7831 53.9 59.675 55.0081 59.675 56.375C59.675 57.7419 60.7831 58.85 62.15 58.85Z" stroke="#31A62B" stroke-width="3" stroke-miterlimit="10" stroke-linecap="round" stroke-linejoin="round"/>
<path d="M50.05 53.35L53.075 56.375H62.15" stroke="#31A62B" stroke-width="3" stroke-miterlimit="10" stroke-linecap="round" stroke-linejoin="round"/>
<path d="M62.15 34.1C63.5169 34.1 64.625 32.9919 64.625 31.625C64.625 30.2581 63.5169 29.15 62.15 29.15C60.7831 29.15 59.675 30.2581 59.675 31.625C59.675 32.9919 60.7831 34.1 62.15 34.1Z" stroke="#31A62B" stroke-width="3" stroke-miterlimit="10" stroke-linecap="round" stroke-linejoin="round"/>
<path d="M50.05 34.65L53.075 31.625H62.15" stroke="#31A62B" stroke-width="3" stroke-miterlimit="10" stroke-linecap="round" stroke-linejoin="round"/>
</svg>
